<?xml version="1.0" standalone="no"?>
<!DOCTYPE svg PUBLIC "-//W3C//DTD SVG 20010904//EN"
 "http://www.w3.org/TR/2001/REC-SVG-20010904/DTD/svg10.dtd">
<svg version="1.0" xmlns="http://www.w3.org/2000/svg"
 width="387.000000pt" height="387.000000pt" viewBox="0 0 387.000000 387.000000"
 preserveAspectRatio="xMidYMid meet">
<metadata>
Created by potrace 1.11, written by Peter Selinger 2001-2013
</metadata>
<g transform="translate(0.000000,387.000000) scale(0.100000,-0.100000)"
fill="#000000" stroke="none">
<path d="M426 2798 c5 -18 -6 -21 -79 -21 -9 0 -17 -5 -16 -11 4 -31 -1 -34
-63 -37 -11 0 -18 -8 -18 -19 0 -14 -6 -18 -25 -15 -20 2 -24 -1 -20 -15 4
-13 -3 -21 -27 -30 -18 -7 -27 -14 -20 -17 17 -7 5 -23 -19 -23 -14 0 -19 -7
-19 -25 0 -18 -5 -25 -20 -25 -16 0 -20 -7 -20 -31 0 -17 -4 -28 -10 -24 -5 3
-7 0 -4 -8 3 -8 1 -18 -5 -22 -10 -6 -16 16 -11 40 1 5 -2 7 -6 2 -4 -4 -8
-25 -9 -47 -4 -89 -4 -92 -20 -86 -20 7 -19 -4 2 -19 13 -9 13 -14 3 -20 -9
-5 -11 -4 -6 3 4 7 3 12 -3 12 -5 0 -10 -57 -10 -141 -1 -124 1 -143 16 -155
17 -13 17 -14 -2 -8 -18 5 -19 4 -3 -8 9 -8 18 -32 20 -53 2 -22 9 -40 15 -40
6 0 15 -4 20 -8 8 -8 9 -12 11 -54 2 -16 8 -23 23 -23 15 0 19 -5 15 -15 -3
-8 2 -22 11 -30 13 -14 18 -14 25 -3 7 9 8 6 5 -10 -4 -15 0 -25 9 -29 12 -4
12 -8 2 -22 -10 -13 -9 -13 8 2 25 21 31 21 31 2 0 -8 -4 -12 -8 -9 -4 2 -11
0 -14 -6 -4 -6 -3 -10 2 -9 4 1 20 1 36 0 20 -1 27 -6 27 -21 0 -13 7 -20 19
-20 11 0 23 -5 26 -11 4 -6 13 -8 21 -5 7 3 16 0 20 -6 4 -6 3 -8 -3 -5 -6 4
-15 1 -21 -6 -8 -9 -2 -12 26 -11 43 0 113 -16 94 -23 -6 -3 -9 -9 -6 -14 3
-6 12 -5 22 3 10 8 13 9 9 1 -7 -12 33 -16 136 -14 42 1 47 -1 47 -20 0 -16 5
-20 18 -17 11 3 19 0 19 -8 0 -7 -4 -11 -9 -8 -4 3 -8 -1 -8 -8 0 -10 -3 -9
-11 2 -9 13 -10 13 -6 0 2 -8 11 -14 19 -12 11 1 15 -8 17 -35 3 -65 16 -103
36 -103 7 0 12 -11 11 -27 -1 -22 3 -28 20 -27 11 1 21 -5 21 -13 0 -8 -8 -11
-21 -8 -19 5 -19 4 2 -6 12 -7 22 -20 22 -29 0 -10 7 -21 16 -24 10 -4 13 -2
8 7 -5 8 -3 8 7 -1 8 -7 15 -17 15 -23 1 -5 2 -13 3 -19 0 -5 10 -10 21 -10
11 0 19 -3 19 -7 -3 -19 2 -33 12 -33 5 0 7 5 3 12 -4 7 6 2 23 -10 17 -12 33
-19 36 -16 3 3 4 -3 4 -13 -2 -13 5 -18 23 -18 16 0 26 -7 30 -20 4 -16 15
-21 60 -23 33 -2 61 -10 70 -19 13 -14 13 -15 0 -7 -28 16 -50 15 -49 -4 0
-10 3 -12 6 -5 3 9 10 10 22 3 10 -5 94 -9 186 -9 158 1 168 2 173 21 3 13 11
18 23 15 11 -3 19 -1 19 3 0 5 12 7 27 4 24 -5 25 -3 12 13 -7 10 -10 15 -5
11 5 -4 15 0 24 8 11 11 17 12 22 4 5 -8 9 -7 13 4 4 9 13 13 22 10 10 -4 15
0 15 15 0 16 6 21 25 21 19 0 25 5 23 17 -2 11 6 19 22 23 18 4 24 12 22 28
-2 17 1 20 17 17 16 -3 21 1 21 16 0 12 10 23 26 29 21 8 24 13 15 24 -7 9 -8
15 -2 18 5 1 11 15 13 30 2 15 8 31 13 35 4 4 5 2 1 -4 -4 -8 -2 -13 6 -13 14
0 20 28 20 88 0 17 4 32 9 32 5 0 7 6 5 13 -1 6 -1 9 1 5 10 -17 25 -7 20 12
-3 11 -1 22 4 25 4 3 6 12 3 19 -6 17 82 21 92 5 4 -8 3 -9 -4 -5 -8 5 -10 -3
-5 -26 6 -32 21 -51 33 -43 3 2 6 -23 7 -56 2 -67 7 -81 29 -72 10 4 15 1 14
-8 -5 -33 0 -50 13 -43 9 6 9 4 -1 -8 -11 -13 -9 -17 13 -22 14 -4 25 -12 24
-19 -3 -22 1 -37 9 -36 22 4 32 -3 32 -21 0 -13 7 -20 19 -20 11 0 23 -4 26
-10 3 -5 1 -10 -5 -10 -6 0 -8 -5 -5 -10 3 -6 19 -10 36 -10 16 0 29 -4 29
-10 0 -5 -5 -10 -11 -10 -5 0 -7 -4 -4 -10 3 -5 16 -10 29 -10 12 0 26 -3 30
-7 7 -8 11 -9 39 -12 9 -1 8 -4 -2 -10 -16 -10 21 -21 82 -23 21 -1 40 -5 43
-10 3 -4 -3 -5 -12 -1 -13 5 -15 3 -9 -8 8 -12 6 -12 -8 0 -15 11 -17 11 -17
-2 0 -13 25 -15 175 -15 157 0 175 2 173 16 -2 9 2 17 7 17 59 5 125 18 125
26 0 6 -5 7 -12 3 -7 -5 -8 -3 -3 5 4 7 16 11 26 8 12 -3 17 -1 12 6 -4 6 2 8
15 5 12 -4 22 -2 22 4 0 5 5 6 10 3 6 -4 10 -3 9 2 -4 22 3 33 20 33 13 0 21
8 23 23 2 13 9 21 19 19 9 -1 21 9 27 23 6 14 18 25 26 25 8 0 16 10 18 23 2
15 9 21 23 20 11 -1 14 0 8 3 -10 4 -9 11 3 29 8 12 14 27 13 31 -4 23 3 35
18 32 17 -3 18 1 22 90 0 18 5 31 9 28 4 -2 13 4 20 15 7 11 8 19 2 19 -5 0
-10 -4 -10 -10 0 -5 -4 -10 -10 -10 -18 0 -10 22 10 27 11 3 20 10 20 15 0 5
-5 6 -10 3 -5 -3 -10 -2 -10 4 0 18 31 21 213 23 15 0 27 5 27 10 0 5 -6 6
-12 3 -7 -4 -4 1 6 9 24 19 43 21 27 3 -8 -10 -7 -14 4 -14 7 0 14 3 13 6 -2
23 5 29 33 26 26 -4 29 -2 19 10 -9 11 -4 16 32 26 44 13 61 27 52 41 -3 4 7
8 21 8 19 0 25 5 23 18 -2 11 4 18 20 20 14 2 22 10 22 24 0 15 5 19 20 15 10
-3 19 -2 18 2 0 3 0 17 1 30 1 18 5 22 21 18 16 -4 20 0 20 18 0 22 22 50 32
40 2 -3 5 2 5 10 0 11 -4 12 -11 5 -5 -5 -15 -10 -21 -10 -5 0 2 8 18 18 15
10 25 21 21 24 -3 4 0 16 6 28 9 17 9 24 1 30 -9 5 -7 11 5 21 12 9 15 10 10
2 -4 -7 -3 -13 3 -13 6 0 9 68 10 175 0 96 -4 173 -9 170 -14 -9 -26 19 -25
62 0 36 -2 40 -17 32 -14 -8 -16 -6 -11 7 4 11 2 15 -4 11 -6 -4 -11 -1 -10 6
1 43 -4 57 -23 57 -15 0 -20 7 -20 25 0 22 -9 30 -32 26 -5 0 -8 8 -8 19 0 15
-7 20 -24 20 -19 0 -24 4 -21 20 3 16 -2 20 -21 20 -17 0 -24 5 -24 20 0 13
-7 20 -19 20 -20 0 -45 23 -35 33 4 4 -3 5 -15 2 -11 -2 -21 0 -21 6 0 5 -18
9 -40 9 -36 0 -45 6 -42 31 1 4 -80 7 -178 8 -110 0 -180 -3 -180 -9 0 -6 -5
-10 -11 -10 -5 0 -7 5 -3 12 5 7 3 8 -5 3 -9 -5 -10 -10 -2 -18 7 -7 15 -6 27
4 15 12 17 12 12 -1 -2 -8 -18 -16 -34 -17 -69 -4 -99 -11 -100 -22 -1 -6 -2
-16 -3 -22 0 -6 -9 -8 -19 -5 -13 5 -22 -1 -29 -17 -7 -14 -20 -23 -39 -25
-33 -3 -44 -12 -47 -39 -1 -15 -6 -19 -21 -15 -12 3 -17 1 -13 -5 4 -6 -7 -25
-23 -43 -16 -18 -28 -35 -26 -39 3 -4 1 -13 -5 -21 -6 -12 -9 -12 -9 -2 0 10
-4 10 -16 -2 -8 -9 -15 -33 -16 -55 0 -23 -6 -42 -13 -45 -9 -3 -12 2 -10 16
3 11 1 17 -3 14 -9 -9 -9 -13 -11 -77 -1 -37 -4 -48 -13 -43 -10 6 -10 4 -3
-7 6 -8 10 -21 9 -29 -1 -8 -2 -22 -3 -30 -1 -12 -3 -13 -10 -1 -6 9 -11 10
-15 2 -4 -6 -19 -11 -33 -11 -20 0 -24 4 -20 20 3 11 1 18 -4 14 -5 -3 -9 -13
-9 -22 0 -13 -2 -14 -9 -3 -7 11 -9 11 -13 0 -3 -8 -6 13 -8 46 -4 101 -5 110
-12 110 -3 0 -10 -4 -15 -9 -5 -5 -3 -6 5 -2 16 9 16 -2 -1 -19 -11 -11 -14
-7 -14 24 -1 20 -4 45 -6 56 -3 11 -6 26 -6 34 -1 11 -4 11 -18 0 -11 -10 -14
-10 -9 -1 4 6 3 12 -3 12 -5 0 -8 9 -6 20 2 11 -1 20 -6 20 -6 0 -7 5 -4 10 3
6 2 10 -4 10 -5 0 -11 -6 -14 -12 -2 -7 -8 -10 -12 -6 -4 4 -2 15 6 25 9 11
10 14 2 9 -12 -6 -18 11 -14 37 0 4 -4 7 -10 7 -6 0 -9 -6 -6 -13 3 -8 -1 -14
-8 -14 -7 0 -12 8 -10 19 2 10 0 18 -5 18 -5 0 -7 9 -5 19 2 13 -2 18 -13 16
-9 -1 -24 4 -34 12 -13 12 -18 12 -24 1 -6 -9 -10 -6 -14 12 -3 14 -12 25 -20
26 -35 2 -41 5 -35 14 3 6 1 10 -4 10 -6 0 -11 -5 -11 -12 0 -6 -3 -8 -6 -5
-4 4 -2 13 5 20 9 12 6 14 -14 11 -14 -1 -32 4 -40 13 -8 8 -15 10 -15 4 0
-19 -28 -12 -35 8 -5 18 -18 19 -166 20 -140 0 -159 -2 -149 -14 7 -8 17 -12
23 -8 6 3 7 1 3 -6 -6 -9 -11 -9 -22 0 -11 9 -18 9 -26 1 -15 -15 -32 -16 -23
-2 3 6 2 10 -4 10 -5 0 -11 -4 -13 -10 -1 -5 -20 -11 -40 -13 -40 -4 -53 -11
-53 -30 0 -12 -5 -13 -50 -16 -11 -1 -16 -5 -10 -9 22 -15 12 -29 -21 -30 -41
-2 -57 -9 -48 -23 4 -6 10 -6 18 0 9 8 13 7 13 -4 0 -8 -2 -13 -5 -10 -9 9
-43 -17 -39 -29 3 -7 -1 -13 -8 -13 -10 0 -11 5 -4 19 6 10 6 18 1 18 -6 0
-15 -20 -21 -45 -6 -25 -15 -44 -19 -44 -26 4 -29 -2 -34 -58 -1 -7 -5 -10
-10 -7 -5 3 -6 10 -3 15 4 5 2 9 -4 9 -15 0 -23 -18 -11 -25 8 -5 8 -11 0 -20
-6 -7 -12 -30 -14 -51 -2 -30 -7 -38 -20 -36 -13 2 -16 -7 -17 -55 -1 -32 -1
-61 -1 -64 1 -3 -21 -7 -49 -8 -50 -1 -59 5 -37 27 9 9 7 12 -10 12 -12 0 -22
-5 -22 -11 0 -5 4 -7 10 -4 6 3 7 -1 4 -10 -14 -35 -20 -5 -23 108 -1 20 -5
26 -13 21 -10 -6 -10 -4 0 7 18 19 15 28 -8 22 -15 -4 -18 -1 -15 16 2 11 0
23 -5 26 -5 3 -7 14 -5 25 3 15 -2 20 -17 20 -14 0 -18 5 -14 15 3 8 1 15 -4
15 -6 0 -10 9 -10 19 0 11 -9 23 -20 26 -13 4 -20 15 -20 31 0 22 -2 23 -21
13 -15 -8 -19 -8 -15 0 4 6 2 11 -5 11 -6 0 -9 8 -6 20 4 17 2 20 -13 15 -10
-3 -21 -1 -24 4 -4 5 -15 8 -25 6 -13 -2 -18 2 -17 18 1 17 -5 22 -24 22 -18
0 -25 5 -25 20 0 21 -2 21 -95 26 -25 1 -39 4 -33 6 7 3 9 11 6 19 -5 13 -32
15 -179 13 -163 -3 -174 -4 -168 -21z m44 7 c0 -2 -6 -8 -13 -14 -10 -8 -14
-7 -14 2 0 8 6 14 14 14 7 0 13 -1 13 -2z m2965 -7 c4 -3 2 -9 -3 -12 -5 -3
-15 1 -21 8 -10 11 -9 14 3 12 9 -1 18 -5 21 -8z m-1335 -4 c0 -8 -19 -13 -24
-6 -3 5 1 9 9 9 8 0 15 -2 15 -3z m-1218 -31 c-6 -2 -9 -10 -6 -15 4 -7 2 -8
-5 -4 -13 9 -5 26 12 25 9 0 8 -2 -1 -6z m790 -15 c-12 -12 -35 -1 -27 12 3 5
13 6 21 3 10 -4 12 -9 6 -15z m1892 -17 c-4 -3 -9 0 -11 7 -3 6 -10 9 -15 6
-7 -4 -8 -2 -4 5 6 9 11 9 22 0 8 -6 12 -15 8 -18z m-2849 -12 c11 -1 14 -3 8
-6 -24 -9 -13 -22 20 -23 17 0 40 -1 50 -1 15 0 21 -11 18 -31 -2 -15 18 -8
29 10 10 16 10 15 8 -3 -2 -15 3 -20 22 -20 14 0 26 -6 26 -12 1 -7 2 -18 3
-24 0 -5 5 -8 10 -5 17 11 40 -5 36 -25 -2 -11 0 -17 5 -14 17 10 42 -8 37
-26 -4 -15 0 -19 20 -19 20 0 24 -4 20 -20 -3 -11 -1 -23 4 -26 5 -3 6 -11 2
-17 -5 -8 -2 -8 9 0 8 7 18 10 22 6 4 -4 -4 -13 -16 -20 l-23 -14 23 6 c20 6
22 3 24 -32 2 -57 3 -61 12 -70 5 -4 6 -3 2 5 -4 7 -2 12 5 12 8 0 7 5 -2 17
-8 9 -9 14 -2 10 6 -4 13 -2 15 4 2 6 4 -9 5 -33 1 -24 2 -48 3 -53 2 -6 2
-23 1 -39 -1 -29 -2 -29 -17 -10 -8 10 -12 13 -8 5 5 -10 3 -13 -9 -8 -11 4
-14 2 -10 -9 5 -13 -24 -20 -64 -15 -12 2 -18 -12 -14 -32 1 -5 -3 -6 -9 -2
-5 3 -10 1 -10 -4 0 -6 -5 -11 -11 -11 -5 0 -7 6 -3 13 4 6 -9 -3 -27 -20 -19
-18 -43 -33 -52 -33 -15 0 -18 -5 -16 -27 0 -5 -10 -10 -23 -13 -14 -4 -24
-15 -26 -28 -2 -14 -10 -22 -23 -22 -12 0 -19 -7 -19 -20 0 -17 -9 -24 -31
-22 -3 1 -6 -4 -7 -11 -5 -55 -9 -77 -15 -83 -4 -4 -7 -2 -7 5 0 7 -4 10 -10
6 -5 -3 -7 -12 -4 -20 4 -8 11 -12 17 -8 6 3 7 1 3 -6 -5 -8 -12 -9 -20 -2
-13 11 -14 3 -17 -96 -1 -23 -4 -42 -8 -41 -30 3 -42 -3 -36 -22 5 -16 2 -20
-14 -20 -13 0 -21 7 -22 18 -1 15 -2 15 -6 1 -3 -11 -14 -16 -34 -15 -26 1
-33 7 -31 27 1 5 -57 9 -120 9 -21 0 -28 4 -28 20 0 15 -7 20 -25 20 -14 0
-25 4 -25 10 0 5 -7 6 -17 3 -11 -4 -14 -3 -9 5 4 7 2 12 -4 12 -6 0 -8 5 -5
10 6 9 -8 14 -28 11 -5 -1 -11 8 -14 19 -3 11 -14 20 -24 20 -14 0 -19 7 -19
25 0 19 -5 25 -18 23 -12 -2 -17 3 -16 20 0 12 -3 22 -7 22 -4 0 -6 8 -5 18 2
10 -5 19 -17 22 -22 6 -26 26 -30 142 -1 36 -5 64 -10 61 -4 -2 -5 -9 -2 -14
4 -5 1 -9 -4 -9 -6 0 -11 -5 -11 -11 0 -5 4 -8 9 -5 5 4 8 -2 7 -11 -2 -10 -7
-18 -12 -18 -13 0 -12 164 1 169 13 5 13 -23 0 -43 -5 -10 -4 -12 3 -7 15 9
15 1 2 -24 -8 -15 -7 -18 2 -15 8 3 14 26 15 60 1 40 -2 53 -10 49 -8 -5 -8
-2 0 7 7 7 13 26 13 42 0 20 4 26 13 21 8 -6 8 -3 -1 9 -12 14 -11 17 10 22
24 6 35 35 14 35 -6 0 -3 7 7 15 11 7 24 12 30 11 7 -2 9 -1 5 1 -5 3 -3 13 3
24 5 11 15 17 22 13 9 -5 8 -3 -1 7 -18 20 -15 31 8 24 19 -6 25 2 21 32 -1 6
17 14 39 18 22 4 40 11 40 17 0 6 -7 8 -15 4 -8 -3 -15 -1 -15 4 0 5 20 12 45
16 25 3 48 11 52 17 3 6 1 7 -5 3 -8 -5 -10 -2 -6 9 5 13 9 13 22 3 12 -10 14
-10 8 0 -8 13 0 14 87 15 36 1 47 4 46 16 0 10 -2 11 -5 4 -3 -7 -13 -9 -21
-6 -15 6 -14 7 2 13 16 6 62 5 190 -1z m1255 -5 c0 -14 25 -26 34 -17 10 10 7
23 -5 23 -5 0 -7 -5 -3 -12 4 -7 3 -8 -5 -4 -11 7 -6 26 8 26 4 0 16 -7 27
-16 10 -8 13 -13 7 -9 -7 3 -13 1 -13 -4 0 -15 13 -14 29 2 11 10 13 10 7 0
-7 -12 11 -16 77 -16 10 0 17 -7 17 -19 0 -14 5 -18 15 -15 8 4 17 2 21 -4 3
-6 12 -8 19 -5 15 5 39 -17 29 -27 -4 -3 5 -9 20 -13 16 -4 26 -13 26 -24 0
-12 9 -20 23 -22 14 -2 21 -9 19 -19 -1 -9 5 -23 15 -30 14 -12 16 -12 9 0 -6
9 -4 12 5 9 8 -3 13 -17 13 -31 -1 -19 4 -27 15 -27 13 -1 12 -3 -4 -17 -20
-15 -20 -15 3 -10 27 6 30 1 35 -73 2 -30 8 -54 13 -52 5 1 9 6 9 11 0 5 2 12
5 14 3 3 6 -14 8 -38 2 -39 0 -43 -18 -38 -12 3 -20 0 -20 -6 0 -7 6 -9 13 -5
6 4 5 -1 -4 -10 -8 -9 -31 -17 -51 -18 -26 -1 -39 -7 -46 -22 -6 -15 -20 -22
-42 -24 -41 -3 -53 -10 -46 -28 4 -10 -2 -14 -19 -14 -19 0 -25 -5 -25 -21 0
-11 -4 -18 -9 -15 -5 3 -20 -3 -32 -15 -13 -11 -18 -17 -10 -13 9 4 12 2 9 -7
-3 -8 -12 -13 -22 -11 -11 2 -16 -4 -16 -22 0 -18 -6 -26 -22 -28 -12 -2 -23
-9 -26 -16 -2 -8 2 -10 13 -6 9 4 1 -11 -19 -32 -19 -21 -36 -48 -36 -59 0
-11 -1 -31 -1 -44 0 -17 -5 -22 -18 -18 -10 2 -18 -1 -18 -8 0 -7 6 -11 13 -8
16 6 26 -11 18 -31 -6 -15 -8 -15 -21 1 -13 16 -14 16 -9 1 2 -9 1 -29 -3 -45
-6 -23 -13 -28 -39 -29 -18 -1 -32 4 -32 10 0 6 -5 4 -10 -4 -8 -13 -10 -13
-10 2 0 9 6 19 13 21 7 3 4 6 -6 6 -10 1 -15 6 -12 11 3 6 1 10 -4 10 -6 0
-11 5 -11 11 0 5 4 7 10 4 6 -4 9 5 8 19 -1 14 -8 28 -15 31 -11 3 -11 0 -2
-16 6 -13 7 -19 1 -15 -6 3 -12 0 -15 -6 -2 -7 -5 19 -6 57 -1 51 -6 74 -18
85 -15 13 -16 13 -5 -1 10 -14 10 -18 -3 -23 -9 -3 -13 -2 -10 4 3 6 2 10 -2
10 -5 0 -9 10 -10 23 -1 51 -3 57 -24 57 -14 0 -19 5 -16 14 7 17 -18 40 -33
31 -6 -4 -10 -3 -9 2 5 27 -3 43 -21 43 -14 0 -20 6 -18 18 2 12 -5 18 -24 20
-19 2 -28 10 -30 25 -2 16 -10 22 -33 23 -43 2 -43 2 -50 24 -4 11 -12 20 -18
19 -7 -1 -24 -1 -39 0 -21 1 -26 5 -23 21 2 11 0 20 -6 20 -5 0 -9 -5 -9 -11
0 -6 -7 -4 -15 5 -10 9 -13 27 -11 48 3 18 5 36 5 40 1 4 7 5 14 2 9 -3 14 8
16 38 1 24 9 50 18 58 9 8 13 9 9 3 -4 -7 -2 -13 3 -13 6 0 12 11 12 25 1 14
3 30 4 35 1 6 3 15 4 20 0 6 10 10 21 10 13 0 20 7 20 20 0 13 7 20 20 20 13
0 20 7 20 20 0 11 3 20 8 21 29 3 58 11 66 19 5 5 0 7 -14 3 -16 -4 -21 -3
-16 5 4 7 25 15 47 18 29 5 39 11 39 25 0 20 -2 20 112 23 31 0 62 6 68 12 8
8 6 11 -4 11 -8 0 -13 -4 -10 -9 3 -4 0 -8 -5 -8 -6 0 -11 6 -11 13 0 8 -4 7
-10 -3 -7 -11 -10 -11 -10 -2 0 7 -4 10 -10 7 -5 -3 -10 -2 -10 2 0 5 32 9 70
9 46 -1 70 -5 70 -12z m1314 5 c-3 -5 -10 -7 -15 -4 -5 4 -9 1 -9 -4 0 -16 11
-14 32 6 16 14 18 14 18 0 0 -8 -6 -17 -12 -19 -7 -3 12 -5 42 -5 131 -1 170
-9 138 -29 -7 -4 -8 -3 -4 4 5 8 2 10 -9 6 -9 -4 -14 -8 -12 -11 4 -3 13 -6
85 -19 17 -3 32 -10 32 -15 0 -4 -9 -6 -21 -4 -17 3 -19 2 -9 -10 6 -8 17 -12
24 -9 7 3 18 -5 24 -18 l12 -23 -6 22 c-4 18 -2 22 10 17 8 -3 13 -14 11 -25
-3 -15 2 -19 21 -19 20 0 24 -5 25 -32 1 -18 1 -36 1 -39 -1 -3 6 -6 14 -6 10
0 11 4 4 11 -14 14 -13 29 2 24 11 -4 17 -20 23 -68 2 -14 4 -27 5 -30 1 -3 2
-8 1 -12 0 -4 6 -5 15 -1 13 5 13 7 2 14 -9 6 -9 9 -1 9 17 0 29 -23 14 -28
-8 -3 -9 -8 -1 -17 5 -6 11 -37 11 -68 1 -40 6 -58 17 -62 12 -4 12 -3 3 8 -8
11 -8 17 2 25 10 9 13 0 12 -43 0 -29 -2 -52 -5 -50 -3 2 -10 -3 -17 -10 -10
-10 -9 -14 3 -19 9 -3 12 -1 9 4 -3 6 -1 10 4 10 13 0 9 -34 -4 -37 -6 0 -9 3
-8 8 2 5 -1 9 -5 9 -5 0 -10 -23 -11 -50 -1 -28 -7 -60 -14 -71 -10 -16 -9
-22 3 -30 12 -9 10 -10 -7 -6 -14 3 -23 0 -23 -6 0 -7 -5 -29 -10 -49 -8 -26
-15 -35 -25 -31 -14 5 -19 -6 -16 -34 1 -8 -9 -13 -23 -13 -19 0 -23 -4 -19
-20 5 -20 -3 -24 -38 -21 -10 1 -15 -6 -15 -21 1 -18 -4 -22 -34 -23 -28 -1
-36 -5 -41 -25 -4 -14 -8 -18 -8 -10 -1 9 -4 11 -9 5 -8 -12 -41 -17 -114 -18
-27 -1 -48 -2 -48 -3 0 -1 8 -8 17 -15 11 -10 14 -10 9 -1 -9 14 3 16 24 2 17
-11 16 -11 -27 -15 -18 -1 -30 2 -27 6 3 5 0 9 -5 9 -6 0 -11 -4 -11 -8 0 -16
-58 -11 -64 4 -5 12 -1 14 17 10 l22 -6 -23 12 c-13 6 -21 17 -18 24 3 8 0 11
-9 7 -8 -3 -12 -9 -9 -14 3 -5 1 -9 -5 -9 -5 0 -10 8 -9 18 0 9 -1 41 -2 70
-2 48 -4 52 -24 46 -19 -6 -19 -5 4 15 l24 22 -25 -4 c-24 -5 -26 -2 -23 24 2
16 -1 29 -7 29 -5 0 -9 7 -7 16 2 10 -3 19 -9 21 -7 3 -13 0 -13 -7 0 -6 5 -8
13 -4 8 5 8 2 -2 -9 -14 -18 -22 -22 -20 -9 1 4 1 23 0 44 -1 31 -4 35 -21 31
-16 -4 -20 0 -20 21 0 14 -3 25 -7 25 -31 -5 -45 2 -40 20 4 16 -1 21 -22 23
-19 2 -25 8 -23 22 2 11 -1 15 -7 11 -6 -3 -11 -2 -11 4 0 6 -6 8 -13 5 -8 -3
-19 5 -25 18 l-12 23 6 -23 c5 -22 4 -23 -15 -13 -12 7 -21 14 -21 17 0 3 5 2
10 -1 6 -3 10 -1 10 4 0 6 -4 12 -10 12 -5 1 -14 3 -20 4 -5 1 -24 3 -41 4
-25 1 -29 4 -20 14 13 16 5 28 -14 20 -8 -2 -11 -12 -8 -21 4 -14 3 -15 -5 -2
-6 8 -8 18 -6 22 3 4 1 8 -4 8 -7 0 -8 32 -2 50 1 3 2 19 2 37 1 23 4 30 15
26 12 -5 12 -7 1 -14 -11 -7 -10 -10 1 -21 9 -8 11 -9 7 -1 -3 6 -2 14 3 17 5
3 8 20 7 36 -1 17 4 36 11 42 7 6 13 16 13 22 0 6 -5 4 -10 -4 -8 -13 -10 -12
-10 3 0 19 26 23 33 5 3 -7 6 4 6 25 1 32 4 37 25 37 19 0 24 4 21 20 -2 12 2
20 9 20 7 0 19 11 26 25 7 14 18 25 24 24 25 -3 34 2 32 17 0 9 5 19 13 22 9
3 11 0 6 -9 -6 -11 -5 -12 6 -1 7 6 24 12 37 12 19 0 23 4 19 20 -4 17 0 20
36 22 23 0 48 1 55 1 7 -1 11 5 8 13 -3 8 -1 14 4 14 6 0 10 -7 10 -15 0 -8 5
-15 11 -15 6 0 9 6 6 14 -7 18 0 20 58 23 27 1 43 -2 39 -8z m84 2 c2 -1 0 -6
-3 -11 -5 -8 -11 -7 -21 1 -11 9 -14 9 -14 -1 0 -8 -3 -11 -6 -7 -3 3 -3 10 0
15 5 8 18 9 44 3z m-1013 -50 c3 -5 1 -12 -5 -16 -5 -3 -10 1 -10 9 0 18 6 21
15 7z m525 5 c0 -2 -7 -9 -15 -16 -13 -11 -14 -10 -9 4 5 14 24 23 24 12z
m165 -6 c3 -5 1 -10 -4 -10 -6 0 -11 5 -11 10 0 6 2 10 4 10 3 0 8 -4 11 -10z
m-1950 -91 c11 -16 1 -19 -13 -3 -7 8 -8 14 -3 14 5 0 13 -5 16 -11z m-905
-69 c0 -5 -5 -10 -11 -10 -5 0 -7 5 -4 10 3 6 8 10 11 10 2 0 4 -4 4 -10z
m1089 -352 c8 -7 11 -8 8 -2 -4 6 3 10 15 9 12 -1 24 -8 26 -15 3 -9 -1 -11
-11 -7 -9 3 -19 2 -22 -4 -4 -5 -3 -9 2 -8 26 4 33 -4 33 -39 0 -27 6 -41 20
-50 12 -7 18 -17 15 -22 -4 -6 -11 -8 -16 -4 -5 3 -7 10 -4 15 4 5 1 9 -4 9
-6 0 -11 -9 -11 -21 0 -11 4 -18 8 -15 14 9 30 -8 35 -39 3 -16 9 -39 13 -49
7 -19 8 -19 15 0 7 17 8 17 8 -3 1 -13 0 -25 -1 -28 -2 -2 6 -11 17 -19 15
-11 22 -11 27 -3 4 7 8 -2 9 -20 2 -54 4 -58 20 -55 9 1 23 -5 30 -15 8 -9 9
-14 3 -10 -6 3 -11 0 -11 -7 0 -7 6 -13 13 -13 7 0 11 4 8 9 -3 4 0 8 5 8 6 0
11 -3 11 -8 0 -4 10 -12 23 -17 12 -6 21 -16 19 -23 -1 -7 9 -12 23 -12 14 0
25 -5 25 -11 0 -5 4 -8 8 -5 4 2 14 0 22 -6 12 -8 12 -9 -2 -4 -10 3 -20 1
-23 -4 -5 -9 22 -14 63 -13 6 1 12 -3 12 -8 0 -4 9 -6 20 -4 13 3 23 -2 27
-13 4 -9 11 -20 17 -24 7 -5 6 -8 -3 -8 -11 0 -11 -3 0 -17 8 -9 9 -14 3 -10
-7 4 -11 -10 -13 -40 -1 -45 -15 -68 -33 -57 -5 3 -8 2 -7 -3 1 -4 1 -25 0
-45 -1 -34 -3 -36 -28 -32 -26 4 -26 3 -10 -10 16 -12 16 -14 1 -20 -9 -4 -14
-12 -10 -22 4 -10 2 -13 -6 -8 -7 5 -9 2 -6 -7 4 -10 -1 -15 -13 -16 -20 -2
-71 -33 -53 -33 5 0 15 5 22 12 9 9 12 9 12 0 0 -7 -8 -15 -17 -19 -10 -3 -26
-15 -36 -27 l-18 -21 10 21 c8 16 7 21 -5 21 -7 0 -14 -9 -14 -19 0 -20 -12
-27 -56 -32 -39 -5 -38 -4 -25 -19 9 -11 0 -14 -47 -17 -31 -1 -70 -3 -85 -3
-23 1 -27 -3 -22 -18 9 -26 -10 -24 -22 3 -8 19 -10 20 -16 4 -4 -10 -3 -15 3
-11 6 3 10 2 10 -3 0 -4 -20 -9 -45 -9 -25 -1 -45 3 -45 7 0 4 15 6 33 4 21
-3 27 -1 18 5 -8 5 -21 7 -29 3 -9 -3 -13 -1 -9 5 4 6 1 11 -6 10 -6 0 -40 1
-74 1 -54 2 -63 5 -63 20 0 18 -7 21 -63 23 -22 0 -27 4 -22 18 3 12 0 21 -11
25 -12 4 -15 2 -10 -9 9 -26 -3 -16 -18 14 -9 16 -12 32 -8 35 3 4 -1 4 -10 1
-9 -4 -19 -2 -22 4 -4 6 -14 8 -24 5 -16 -5 -16 -5 1 6 9 6 17 15 17 20 0 12
-22 9 -31 -3 -4 -5 -9 7 -13 27 -5 28 -12 36 -29 36 -18 0 -19 2 -7 10 10 6
11 10 3 10 -8 0 -13 13 -13 30 0 27 -8 35 -32 31 -12 -2 -9 14 4 27 9 9 9 12
-1 12 -9 0 -12 17 -9 63 2 55 5 63 23 65 11 1 38 4 59 6 29 3 42 9 48 25 6 16
14 20 33 17 17 -3 23 -1 19 6 -5 8 -1 9 10 5 12 -5 16 -3 13 5 -2 7 -10 12
-16 10 -6 -1 -11 2 -11 6 0 5 14 9 31 10 17 0 34 4 38 7 6 6 7 10 10 35 0 6 9
10 18 8 11 -2 19 6 23 22 4 15 13 24 23 24 12 -1 17 6 17 22 0 13 5 24 11 24
5 0 8 4 5 9 -8 12 19 33 28 23 5 -4 7 0 6 8 -5 30 0 50 11 48 16 -4 30 47 31
110 0 28 5 55 10 58 6 4 5 10 -3 16 -11 8 -11 9 2 5 9 -3 22 -1 30 4 19 12 23
11 38 -3z m1288 -10 l-6 -23 17 22 c21 28 66 29 51 1 -8 -14 -6 -18 8 -19 10
-1 22 -1 26 0 5 1 8 -9 7 -21 -1 -13 -2 -44 -1 -70 1 -41 3 -46 21 -41 18 5
20 0 20 -46 0 -29 5 -51 11 -51 5 0 7 4 4 10 -3 6 1 7 9 4 14 -5 21 -31 17
-57 -1 -5 4 -5 10 -1 9 5 10 2 6 -9 -3 -9 -3 -16 1 -16 20 3 33 -2 31 -13 -1
-7 -1 -20 0 -28 1 -13 2 -13 11 0 7 11 10 11 10 2 0 -7 5 -10 10 -7 10 6 14
-8 10 -34 -2 -13 0 -13 16 0 11 8 15 9 10 2 -6 -12 18 -19 47 -14 5 1 6 -3 3
-8 -4 -5 0 -16 8 -24 8 -8 12 -18 8 -23 -4 -5 0 -3 10 4 11 9 18 10 23 2 3 -6
12 -7 18 -3 8 5 8 2 0 -9 -16 -18 -5 -32 14 -17 10 9 13 8 13 0 0 -7 5 -9 10
-6 6 3 10 1 10 -5 0 -8 6 -8 21 0 19 10 20 10 10 -8 -8 -15 -7 -21 3 -25 16
-6 26 1 26 17 0 6 -5 4 -11 -4 -7 -10 -9 -11 -7 -2 9 33 23 1 24 -53 1 -51 -2
-62 -20 -73 -21 -13 -21 -13 3 -6 16 4 21 3 17 -5 -4 -6 -14 -11 -22 -11 -15
0 -15 -2 -17 -47 0 -19 -7 -30 -21 -34 -14 -4 -20 -13 -19 -27 3 -20 -9 -27
-38 -24 -4 1 -6 -9 -5 -21 1 -17 -4 -22 -21 -21 -13 1 -20 -2 -18 -7 7 -10
-24 -41 -35 -34 -5 3 -10 -5 -12 -17 -2 -17 -10 -23 -28 -23 -14 0 -26 -6 -26
-12 -3 -30 -4 -33 -11 -32 -5 1 -31 1 -59 0 -42 -1 -53 -5 -63 -23 -10 -21
-11 -21 -6 -2 4 14 0 21 -10 21 -8 0 -14 -7 -13 -15 2 -8 -3 -17 -11 -20 -10
-3 -12 0 -8 11 3 9 1 19 -5 23 -7 4 -8 3 -4 -4 4 -7 3 -12 -3 -12 -5 0 -11 5
-13 12 -3 7 -7 5 -11 -6 -4 -10 -3 -15 3 -11 6 3 10 1 10 -4 0 -6 -9 -11 -21
-11 -11 0 -18 4 -15 8 2 4 0 14 -5 22 -8 12 -9 11 -7 -5 3 -17 -3 -20 -38 -20
-22 0 -41 5 -41 10 0 6 8 11 18 11 10 0 16 -3 14 -6 -2 -3 5 -7 16 -7 15 -1
17 1 7 10 -7 7 -44 14 -83 16 -38 1 -75 7 -82 13 -9 7 -13 7 -13 -2 0 -8 -3
-11 -6 -7 -3 3 -3 11 1 17 5 8 11 8 21 -1 11 -9 14 -8 14 2 0 9 -13 15 -37 16
-21 1 -39 7 -41 13 -2 5 -9 7 -15 3 -6 -4 -8 0 -4 9 8 22 -3 30 -21 15 -13 -9
-14 -9 -8 1 4 7 2 12 -4 12 -6 0 -9 4 -6 9 3 5 -1 14 -9 21 -10 9 -15 9 -15 1
0 -6 5 -11 11 -11 5 0 7 -4 4 -10 -3 -5 -11 -10 -16 -10 -6 0 -8 4 -4 9 7 12
-24 43 -36 36 -5 -4 -6 1 -2 10 5 13 7 14 14 3 5 -7 9 -8 9 -2 0 18 -13 24
-27 12 -10 -8 -12 -8 -8 4 4 9 -3 19 -17 26 -23 12 -23 12 2 6 22 -6 23 -5 12
9 -8 9 -20 13 -27 11 -9 -4 -15 4 -17 23 -2 17 -8 27 -16 25 -8 -1 -11 2 -7 8
3 6 11 8 16 5 5 -4 9 1 9 9 0 9 -9 16 -20 16 -15 0 -20 7 -21 28 -3 63 -5 78
-13 91 -6 10 -6 12 2 7 7 -4 12 -2 12 4 0 6 4 9 8 6 4 -2 14 -1 21 3 10 6 9
10 -4 14 -10 5 -14 3 -9 -5 4 -7 3 -8 -4 -4 -18 11 -14 25 6 25 9 0 28 2 42 4
14 3 29 5 33 6 5 0 5 7 2 14 -4 6 1 3 11 -8 11 -13 15 -15 11 -4 -6 17 28 43
43 34 8 -5 14 13 12 36 -1 3 6 6 14 6 17 0 18 -9 4 -23 -7 -7 -6 -11 4 -11 8
0 15 3 14 6 -2 25 4 41 13 35 8 -4 9 1 5 17 l-7 24 14 -24 c12 -20 15 -21 20
-7 4 9 1 16 -6 16 -8 0 -9 3 -1 8 6 4 16 16 23 27 11 19 12 18 7 -5 -3 -14 -3
-19 0 -12 3 6 11 9 17 5 6 -4 8 0 4 10 -4 10 0 20 11 26 10 6 12 11 5 11 -22
0 -14 16 12 28 16 7 25 19 23 29 -2 10 3 18 10 19 6 1 17 2 24 3 6 0 3 10 -8
23 -15 19 -16 20 -1 9 19 -15 20 -12 18 44 -1 17 2 26 6 20 12 -16 30 -15 30
0 0 8 -4 12 -8 10 -4 -3 -9 2 -12 10 -4 8 -1 12 6 9 8 -3 13 5 14 18 4 60 15
108 25 108 6 0 8 -10 5 -22z m93 2 c0 -5 -5 -10 -11 -10 -5 0 -7 5 -4 10 3 6
8 10 11 10 2 0 4 -4 4 -10z m288 -15 c-3 -3 -9 2 -12 12 -6 14 -5 15 5 6 7 -7
10 -15 7 -18z m-1833 -22 c2 -7 -1 -13 -7 -13 -6 0 -5 -6 3 -17 11 -13 11 -15
1 -9 -9 6 -12 3 -10 -10 2 -13 -2 -18 -14 -16 -13 2 -17 -7 -20 -40 -2 -34 -7
-43 -20 -42 -13 1 -18 -6 -18 -27 0 -15 -4 -31 -10 -34 -5 -3 -10 -2 -10 4 0
6 -8 7 -17 4 -12 -5 -13 -8 -4 -11 9 -3 8 -9 -4 -22 -10 -11 -24 -16 -33 -13
-9 4 -13 2 -9 -4 9 -15 -3 -44 -14 -37 -5 3 -9 -1 -9 -8 0 -10 -2 -10 -9 0 -6
10 -10 8 -14 -10 -4 -14 -12 -25 -19 -26 -42 -3 -56 -7 -52 -14 3 -5 11 -5 17
-1 7 4 6 0 -2 -10 -14 -17 -26 -24 -17 -9 2 4 -3 13 -13 19 -14 9 -18 8 -18
-3 0 -7 4 -11 9 -8 4 3 8 0 8 -5 0 -6 -9 -11 -20 -11 -19 0 -21 6 -19 51 2 27
7 53 12 56 6 3 7 1 3 -5 -3 -6 -2 -13 4 -17 12 -7 19 8 24 55 2 19 8 36 15 36
6 1 15 2 20 3 5 0 8 9 7 19 -2 10 5 19 18 23 12 3 20 12 18 19 -4 18 31 42 41
27 5 -7 6 -3 2 9 -3 14 1 26 12 35 11 9 14 10 9 2 -9 -15 3 -17 24 -3 12 8 12
10 1 10 -11 0 -11 3 -1 15 7 8 20 14 29 13 10 -2 17 5 19 19 3 19 9 22 43 20
21 -1 41 -8 44 -14z m332 -3 c-1 -20 -8 -25 -20 -14 -7 8 3 34 13 34 5 0 8 -9
7 -20z m57 11 c5 -1 2 -9 -5 -18 -10 -11 -10 -14 -1 -9 6 4 12 3 12 -2 0 -6
10 -10 23 -11 44 -1 54 -5 53 -20 -1 -9 8 -17 22 -19 14 -2 22 -10 22 -23 0
-17 11 -24 33 -20 4 0 8 -9 9 -21 0 -13 2 -29 2 -37 1 -8 11 -17 24 -22 14 -5
22 -17 23 -34 3 -49 11 -65 25 -44 4 7 3 10 -3 6 -5 -3 -10 0 -10 7 0 30 22 9
25 -23 1 -20 4 -47 5 -60 1 -17 -4 -25 -18 -27 -11 -2 -23 2 -26 8 -6 9 -13 8
-26 -2 -15 -12 -16 -12 -5 0 6 8 12 21 12 30 0 12 -2 12 -9 1 -6 -9 -11 -10
-15 -2 -4 6 -11 9 -16 6 -12 -7 -33 22 -25 35 4 6 1 11 -6 9 -29 -3 -39 2 -39
20 0 13 -8 21 -22 23 -15 2 -23 10 -23 23 0 14 -6 20 -20 19 -12 -1 -21 5 -22
15 -3 56 -9 71 -24 71 -20 0 -31 70 -16 97 7 11 6 14 -2 9 -7 -4 -9 -2 -5 7 3
8 13 14 22 12 9 -2 21 -4 26 -4z m943 -12 c1 -9 -5 -16 -13 -16 -9 0 -13 6
-10 14 3 8 2 12 -3 9 -4 -3 -9 -27 -10 -53 -4 -73 -7 -92 -15 -100 -4 -5 -7
-3 -6 2 5 23 -1 35 -17 35 -13 0 -14 -3 -5 -12 8 -8 8 -17 1 -30 -5 -10 -7
-23 -4 -28 6 -9 -8 -14 -27 -11 -5 0 -9 -4 -9 -9 -1 -5 -3 -14 -4 -20 -1 -5
-3 -14 -4 -19 0 -5 -10 -7 -20 -4 -15 4 -20 -1 -23 -19 -2 -15 -10 -23 -23
-23 -13 0 -20 -6 -19 -17 1 -10 -3 -18 -10 -19 -30 -2 -50 -9 -57 -21 -7 -10
-9 -10 -9 2 -1 8 -5 5 -11 -8 -5 -15 -16 -22 -26 -20 -14 3 -17 11 -14 43 2
22 4 50 4 62 1 12 3 21 7 21 22 -2 30 5 30 27 0 18 5 25 20 25 11 0 20 6 20
14 0 7 7 19 15 26 8 7 15 17 15 23 0 6 -7 2 -15 -9 -14 -17 -14 -17 -9 -1 4
10 17 23 30 27 14 6 21 15 18 23 -5 13 0 15 50 19 16 1 23 8 22 23 -1 11 6 21
14 21 8 1 20 3 25 4 6 1 13 2 16 2 4 -1 5 7 2 17 -4 15 1 18 34 17 28 -1 39
-5 40 -17z m352 7 c9 -6 12 -5 8 0 -3 6 2 10 12 11 20 2 24 -23 4 -25 -7 -1
-19 -3 -27 -4 -8 -1 -12 -7 -9 -14 4 -11 8 -11 19 1 11 10 21 12 38 5 13 -5
27 -6 30 -3 3 3 10 -6 15 -20 7 -18 15 -25 26 -21 8 3 15 1 15 -6 0 -6 4 -9 8
-6 4 2 14 1 21 -3 10 -6 9 -10 -4 -14 -10 -5 -14 -3 -9 5 4 7 3 8 -4 4 -19
-12 -14 -28 7 -21 14 4 20 -1 25 -20 4 -14 11 -25 17 -25 8 0 7 5 -1 15 -7 8
-10 15 -6 15 3 0 9 1 13 3 7 2 14 -24 16 -60 0 -12 5 -20 9 -17 13 8 34 -9 35
-28 3 -58 3 -60 18 -54 8 3 15 2 16 -2 9 -80 9 -89 -9 -89 -20 0 -35 19 -21
28 5 3 -3 6 -18 7 -50 2 -67 9 -73 29 -3 12 -12 19 -22 17 -10 -1 -19 2 -19 7
-1 5 -2 15 -3 22 0 6 -11 13 -24 15 -12 2 -22 9 -21 15 3 26 -2 35 -18 33 -11
-1 -20 11 -26 34 -5 19 -12 29 -14 23 -8 -22 -25 -14 -18 7 4 11 2 20 -4 20
-6 0 -8 6 -5 14 3 8 -2 27 -11 43 -9 15 -14 20 -11 11 3 -10 1 -20 -3 -23 -5
-3 -8 9 -7 25 1 17 -1 30 -6 30 -4 0 -5 6 -2 14 6 15 21 16 43 2z m-2689 -8
c0 -4 -4 -8 -9 -8 -6 0 -12 4 -15 8 -3 5 1 9 9 9 8 0 15 -4 15 -9z m3670 8 c0
-3 -4 -8 -10 -11 -5 -3 -10 -1 -10 4 0 6 5 11 10 11 6 0 10 -2 10 -4z m-1476
-57 c-3 -5 -10 -7 -15 -3 -5 3 -7 10 -3 15 3 5 10 7 15 3 5 -3 7 -10 3 -15z
m-1393 -42 c-10 -9 -11 -8 -5 6 3 10 9 15 12 12 3 -3 0 -11 -7 -18z m-32 -30
c8 -10 7 -14 -2 -14 -8 0 -14 6 -14 14 0 7 1 13 2 13 2 0 8 -6 14 -13z m301
-3 c0 -8 -4 -12 -10 -9 -5 3 -10 10 -10 16 0 5 5 9 10 9 6 0 10 -7 10 -16z
m-414 -6 c4 -7 3 -8 -4 -4 -7 4 -12 2 -12 -5 0 -7 -3 -10 -6 -6 -6 5 3 27 11
27 2 0 7 -5 11 -12z m715 -5 c13 -16 12 -17 -3 -4 -10 7 -18 15 -18 17 0 8 8
3 21 -13z m699 -23 c0 -5 -5 -10 -11 -10 -5 0 -7 5 -4 10 3 6 8 10 11 10 2 0
4 -4 4 -10z m-466 -8 c2 -4 -4 -8 -14 -8 -10 0 -16 4 -14 8 3 4 9 8 14 8 5 0
11 -4 14 -8z m346 -21 c0 -5 -7 -12 -16 -15 -14 -5 -15 -4 -4 9 14 17 20 19
20 6z m852 -68 c-6 -2 -9 -10 -6 -15 4 -7 2 -8 -5 -4 -13 9 -5 26 12 25 9 0 8
-2 -1 -6z m138 -98 c0 -2 -6 -5 -13 -8 -8 -3 -14 1 -14 8 0 7 6 11 14 8 7 -3
13 -6 13 -8z m-2379 -42 c13 -16 12 -17 -3 -4 -10 7 -18 15 -18 17 0 8 8 3 21
-13z m2724 8 c3 -5 2 -12 -3 -15 -5 -3 -9 1 -9 9 0 17 3 19 12 6z m-2875 -11
c0 -5 -7 -7 -15 -4 -8 4 -15 8 -15 10 0 2 7 4 15 4 8 0 15 -4 15 -10z m137
-122 c-3 -8 -6 -5 -6 6 -1 11 2 17 5 13 3 -3 4 -12 1 -19z m1440 -4 c-3 -3
-12 -4 -19 -1 -8 3 -5 6 6 6 11 1 17 -2 13 -5z m-1380 -161 c0 -9 -4 -10 -14
-2 -7 6 -13 12 -13 14 0 1 6 2 13 2 8 0 14 -6 14 -14z m2457 1 c3 -8 2 -12 -4
-9 -6 3 -10 10 -10 16 0 14 7 11 14 -7z m-54 -89 c-7 -9 -15 -13 -17 -11 -7 7
7 26 19 26 6 0 6 -6 -2 -15z m-1336 -3 c3 -5 -1 -9 -9 -9 -8 0 -12 4 -9 9 3 4
7 8 9 8 2 0 6 -4 9 -8z m-859 -60 c-3 -3 -11 0 -18 7 -9 10 -8 11 6 5 10 -3
15 -9 12 -12z m134 -85 c0 -9 -2 -8 -6 1 -2 6 -10 9 -15 6 -7 -4 -8 -2 -4 5 9
13 26 5 25 -12z m436 12 c11 -16 1 -19 -13 -3 -7 8 -8 14 -3 14 5 0 13 -5 16
-11z m-311 -44 c-4 -8 -8 -15 -10 -15 -2 0 -4 7 -4 15 0 8 4 15 10 15 5 0 7
-7 4 -15z m159 -2 c-3 -7 -6 -13 -8 -13 -2 0 -5 6 -8 13 -3 8 1 14 8 14 7 0
11 -6 8 -14z m37 13 c0 -2 -8 -10 -17 -17 -16 -13 -17 -12 -4 4 13 16 21 21
21 13z m1575 -6 c-3 -5 -12 -10 -18 -10 -7 0 -6 4 3 10 19 12 23 12 15 0z
m-1514 -77 c-11 -5 -11 -7 0 -14 8 -5 9 -9 3 -9 -6 0 -16 6 -22 13 -8 10 -6
13 11 14 12 0 16 -1 8 -4z"/>
<path d="M580 2709 c0 -9 31 -21 38 -14 3 3 0 5 -7 5 -7 0 -10 4 -7 8 3 5 -1
9 -9 9 -8 0 -15 -4 -15 -8z"/>
<path d="M630 2710 c0 -6 3 -9 8 -9 4 1 9 0 12 -1 16 -6 50 -5 50 2 0 4 -6 8
-12 9 -7 0 -23 2 -35 5 -13 2 -23 -1 -23 -6z"/>
<path d="M900 2159 c0 -5 5 -7 10 -4 6 3 10 8 10 11 0 2 -4 4 -10 4 -5 0 -10
-5 -10 -11z"/>
<path d="M185 1939 c-4 -6 -5 -12 -2 -15 2 -3 7 2 10 11 7 17 1 20 -8 4z"/>
<path d="M647 1763 c3 -7 6 -13 8 -13 2 0 5 6 8 13 3 8 -1 14 -8 14 -7 0 -11
-6 -8 -14z"/>
<path d="M540 1731 c0 -6 4 -13 10 -16 6 -3 7 1 4 9 -7 18 -14 21 -14 7z"/>
<path d="M1730 2670 c0 -5 5 -10 10 -10 6 0 10 5 10 10 0 6 -4 10 -10 10 -5 0
-10 -4 -10 -10z"/>
<path d="M1438 2323 c9 -4 10 -8 2 -18 -8 -10 -8 -15 1 -21 7 -4 9 -3 5 4 -3
6 -2 13 4 17 13 8 3 25 -13 24 -8 0 -8 -2 1 -6z"/>
<path d="M1560 2204 c8 -10 15 -20 16 -22 1 -2 4 1 7 5 3 5 -4 15 -16 23 -21
12 -21 12 -7 -6z"/>
<path d="M2283 2197 c0 -8 6 -14 14 -14 9 0 10 4 2 14 -6 7 -12 13 -14 13 -1
0 -2 -6 -2 -13z"/>
<path d="M1955 1731 c-3 -5 -2 -12 3 -15 5 -3 9 1 9 9 0 17 -3 19 -12 6z"/>
<path d="M3203 2705 c0 -8 4 -12 9 -9 5 3 6 10 3 15 -9 13 -12 11 -12 -6z"/>
<path d="M3635 2541 c-3 -5 -2 -12 3 -15 5 -3 9 1 9 9 0 17 -3 19 -12 6z"/>
<path d="M3759 2231 c9 -6 10 -10 2 -14 -8 -4 -8 -5 1 -3 20 4 21 26 1 26 -14
0 -15 -2 -4 -9z"/>
<path d="M1227 2143 c-4 -3 -7 -11 -7 -17 0 -6 5 -5 12 2 6 6 9 14 7 17 -3 3
-9 2 -12 -2z"/>
<path d="M1420 1851 c0 -10 19 -25 25 -20 1 2 -3 10 -11 17 -8 7 -14 8 -14 3z"/>
<path d="M1555 1710 c3 -5 8 -10 11 -10 2 0 4 5 4 10 0 6 -5 10 -11 10 -5 0
-7 -4 -4 -10z"/>
<path d="M787 1627 c-3 -8 0 -14 7 -14 7 0 13 6 13 14 0 7 -4 13 -8 13 -4 0
-9 -6 -12 -13z"/>
<path d="M1731 1627 c-8 -10 -7 -14 2 -14 8 0 14 6 14 14 0 7 -1 13 -2 13 -2
0 -8 -6 -14 -13z"/>
<path d="M2690 1981 c0 -7 -5 -9 -12 -5 -7 5 -8 3 -3 -5 5 -9 10 -10 18 -2 6
6 8 14 4 18 -4 3 -7 1 -7 -6z"/>
<path d="M2890 1716 c0 -9 5 -16 10 -16 6 0 10 4 10 9 0 6 -4 13 -10 16 -5 3
-10 -1 -10 -9z"/>
<path d="M2805 1210 c3 -5 1 -10 -6 -10 -7 0 -10 -2 -7 -5 8 -9 38 6 32 16 -3
5 -10 9 -15 9 -6 0 -7 -4 -4 -10z"/>
<path d="M1040 2111 c0 -6 4 -12 8 -15 5 -3 9 1 9 9 0 8 -4 15 -9 15 -4 0 -8
-4 -8 -9z"/>
<path d="M1070 2092 c0 -5 7 -17 16 -28 15 -18 15 -18 5 2 -6 12 -7 24 -4 28
3 3 1 6 -5 6 -7 0 -12 -4 -12 -8z"/>
<path d="M1550 2061 c0 -6 4 -12 8 -15 5 -3 9 1 9 9 0 8 -4 15 -9 15 -4 0 -8
-4 -8 -9z"/>
<path d="M1598 2023 c7 -3 16 -2 19 1 4 3 -2 6 -13 5 -11 0 -14 -3 -6 -6z"/>
<path d="M2125 1851 c-6 -11 9 -23 19 -14 9 9 7 23 -3 23 -6 0 -12 -4 -16 -9z"/>
<path d="M1755 2810 c3 -5 8 -10 11 -10 2 0 4 5 4 10 0 6 -5 10 -11 10 -5 0
-7 -4 -4 -10z"/>
<path d="M2115 2810 c3 -5 8 -10 11 -10 2 0 4 5 4 10 0 6 -5 10 -11 10 -5 0
-7 -4 -4 -10z"/>
<path d="M296 2751 c-4 -5 3 -7 14 -4 23 6 26 13 6 13 -8 0 -17 -4 -20 -9z"/>
<path d="M2903 2719 c-2 -23 3 -25 10 -4 4 8 3 16 -1 19 -4 3 -9 -4 -9 -15z"/>
<path d="M955 2721 c-3 -5 0 -13 6 -17 7 -4 9 -3 5 4 -3 5 0 13 6 15 9 4 10 6
1 6 -6 1 -14 -3 -18 -8z"/>
<path d="M3633 2715 c0 -8 4 -12 9 -9 5 3 6 10 3 15 -9 13 -12 11 -12 -6z"/>
<path d="M173 2675 c0 -8 4 -12 9 -9 5 3 6 10 3 15 -9 13 -12 11 -12 -6z"/>
<path d="M2760 2589 c0 -5 5 -7 10 -4 6 3 10 8 10 11 0 2 -4 4 -10 4 -5 0 -10
-5 -10 -11z"/>
<path d="M1337 2423 c-11 -10 -8 -20 7 -26 8 -3 13 0 12 8 -3 19 -11 27 -19
18z"/>
<path d="M3846 2412 c-3 -5 1 -9 9 -9 8 0 12 4 9 9 -3 4 -7 8 -9 8 -2 0 -6 -4
-9 -8z"/>
<path d="M1295 2290 c-3 -5 -1 -10 4 -10 6 0 11 5 11 10 0 6 -2 10 -4 10 -3 0
-8 -4 -11 -10z"/>
<path d="M2626 2292 c-2 -4 4 -8 14 -8 10 0 16 4 14 8 -3 4 -9 8 -14 8 -5 0
-11 -4 -14 -8z"/>
<path d="M49 1948 c0 -2 -2 -11 -4 -21 -3 -15 -1 -16 11 -6 7 6 11 15 8 20 -5
9 -13 12 -15 7z"/>
<path d="M3676 1758 c3 -4 11 -5 19 -1 21 7 19 12 -4 10 -11 0 -18 -5 -15 -9z"/>
<path d="M3555 1670 c3 -5 8 -10 11 -10 2 0 4 5 4 10 0 6 -5 10 -11 10 -5 0
-7 -4 -4 -10z"/>
<path d="M390 1630 c0 -5 5 -10 10 -10 6 0 10 5 10 10 0 6 -4 10 -10 10 -5 0
-10 -4 -10 -10z"/>
<path d="M1867 1501 c-3 -13 0 -18 7 -15 7 3 13 11 13 19 0 22 -14 18 -20 -4z"/>
<path d="M1989 1518 c-7 -23 -4 -35 7 -35 8 0 14 4 14 9 0 4 -5 8 -11 8 -5 0
-7 5 -4 10 3 6 4 10 1 10 -3 0 -6 -1 -7 -2z"/>
<path d="M900 1156 c0 -9 5 -16 10 -16 6 0 10 4 10 9 0 6 -4 13 -10 16 -5 3
-10 -1 -10 -9z"/>
<path d="M2769 1067 c6 -6 18 -12 27 -13 12 -2 14 0 5 9 -6 6 -18 12 -27 13
-12 2 -14 0 -5 -9z"/>
</g>
</svg>
